<svg width="14" height="15" viewBox="0 0 14 15" fill="none" xmlns="http://www.w3.org/2000/svg">
<path d="M12.6875 5.16671C12.6875 5.40588 12.4892 5.60421 12.25 5.60421H1.75C1.51083 5.60421 1.3125 5.40588 1.3125 5.16671C1.3125 4.92755 1.51083 4.72921 1.75 4.72921H2.345L2.56667 3.67338C2.77667 2.65255 3.21417 1.71338 4.9525 1.71338H9.0475C10.7858 1.71338 11.2233 2.65255 11.4333 3.67338L11.655 4.72921H12.25C12.4892 4.72921 12.6875 4.92755 12.6875 5.16671Z" fill="black"/>
<path d="M12.9383 8.46817C12.8508 7.50567 12.5942 6.479 10.7217 6.479H3.27834C1.40584 6.479 1.15501 7.50567 1.06168 8.46817L0.735009 12.0207C0.694176 12.464 0.840009 12.9073 1.14334 13.2398C1.45251 13.5782 1.89001 13.7707 2.35668 13.7707H3.45334C4.39834 13.7707 4.57918 13.2282 4.69584 12.8723L4.81251 12.5223C4.94668 12.1198 4.98168 12.0207 5.50668 12.0207H8.49334C9.01834 12.0207 9.03584 12.079 9.18751 12.5223L9.30418 12.8723C9.42084 13.2282 9.60168 13.7707 10.5467 13.7707H11.6433C12.1042 13.7707 12.5475 13.5782 12.8567 13.2398C13.16 12.9073 13.3058 12.464 13.265 12.0207L12.9383 8.46817ZM5.25001 9.68734H3.50001C3.26084 9.68734 3.06251 9.489 3.06251 9.24984C3.06251 9.01067 3.26084 8.81234 3.50001 8.81234H5.25001C5.48918 8.81234 5.68751 9.01067 5.68751 9.24984C5.68751 9.489 5.48918 9.68734 5.25001 9.68734ZM10.5 9.68734H8.75001C8.51084 9.68734 8.31251 9.489 8.31251 9.24984C8.31251 9.01067 8.51084 8.81234 8.75001 8.81234H10.5C10.7392 8.81234 10.9375 9.01067 10.9375 9.24984C10.9375 9.489 10.7392 9.68734 10.5 9.68734Z" fill="black"/>
</svg>
