<svg width="12" height="13" viewBox="0 0 12 13" fill="none" xmlns="http://www.w3.org/2000/svg">
<path d="M8.33329 0.666504H3.66663C1.33329 0.666504 0.166626 1.83317 0.166626 4.1665V11.7498C0.166626 12.0707 0.429126 12.3332 0.749959 12.3332H8.33329C10.6666 12.3332 11.8333 11.1665 11.8333 8.83317V4.1665C11.8333 1.83317 10.6666 0.666504 8.33329 0.666504ZM7.16663 8.39567H3.08329C2.84413 8.39567 2.64579 8.19734 2.64579 7.95817C2.64579 7.719 2.84413 7.52067 3.08329 7.52067H7.16663C7.40579 7.52067 7.60413 7.719 7.60413 7.95817C7.60413 8.19734 7.40579 8.39567 7.16663 8.39567ZM8.91663 5.479H3.08329C2.84413 5.479 2.64579 5.28067 2.64579 5.0415C2.64579 4.80234 2.84413 4.604 3.08329 4.604H8.91663C9.15579 4.604 9.35413 4.80234 9.35413 5.0415C9.35413 5.28067 9.15579 5.479 8.91663 5.479Z" fill="black"/>
</svg>
